<?xml version="1.0" standalone="no"?>
<!DOCTYPE svg PUBLIC "-//W3C//DTD SVG 20010904//EN"
 "http://www.w3.org/TR/2001/REC-SVG-20010904/DTD/svg10.dtd">
<svg version="1.0" xmlns="http://www.w3.org/2000/svg"
 width="726.000000pt" height="726.000000pt" viewBox="0 0 726.000000 726.000000"
 preserveAspectRatio="xMidYMid meet">
<metadata>
Created by potrace 1.11, written by Peter Selinger 2001-2013
</metadata>
<g transform="translate(0.000000,726.000000) scale(0.100000,-0.100000)"
fill="#000000" stroke="none">
<path d="M3345 6779 c-1118 -99 -2112 -806 -2578 -1834 -71 -157 -166 -438
-201 -595 -56 -258 -70 -384 -70 -680 -1 -299 7 -396 54 -630 104 -522 335
-1003 678 -1410 102 -121 310 -324 432 -422 457 -366 998 -596 1565 -667 164
-21 215 -23 410 -23 625 1 1199 174 1724 520 62 41 121 80 130 88 9 7 52 42
96 77 553 442 947 1071 1100 1753 59 262 69 364 69 694 0 268 -3 323 -22 450
-56 360 -137 619 -292 935 -481 985 -1443 1645 -2540 1744 -124 11 -429 11
-555 0z"/>
</g>
</svg>
